<?xml version="1.0" standalone="no"?>
<!DOCTYPE svg PUBLIC "-//W3C//DTD SVG 20010904//EN"
 "http://www.w3.org/TR/2001/REC-SVG-20010904/DTD/svg10.dtd">
<svg version="1.0" xmlns="http://www.w3.org/2000/svg"
 width="2721.000000pt" height="1728.000000pt" viewBox="0 0 2721.000000 1728.000000"
 preserveAspectRatio="xMidYMid meet">

<g transform="translate(0.000000,1728.000000) scale(0.100000,-0.100000)"
fill="#000000" stroke="none">
<path d="M13872 15498 c-7 -7 -12 -23 -12 -36 0 -24 -1 -24 -25 -8 -34 22 -54
20 -61 -8 -7 -27 17 -80 43 -95 17 -9 16 -11 -6 -32 -65 -61 -113 -232 -92
-329 14 -66 73 -176 78 -145 9 52 73 208 111 269 l24 39 97 -6 c107 -6 210
-30 227 -52 6 -8 14 -38 17 -66 7 -54 40 -119 79 -156 37 -35 118 -67 161 -64
50 3 77 -20 77 -66 0 -62 -47 -123 -95 -123 -18 0 -23 -12 -37 -82 -10 -45
-15 -84 -13 -86 13 -13 104 49 138 94 78 103 135 298 123 423 -9 100 -68 215
-154 300 -86 86 -147 116 -282 137 -58 8 -164 36 -236 60 -147 49 -145 49
-162 32z"/>
<path d="M13896 15051 c-10 -15 22 -33 69 -39 50 -5 59 7 23 32 -24 17 -83 22
-92 7z"/>
<path d="M13914 14906 c-16 -41 17 -72 36 -36 9 16 8 25 -1 36 -15 18 -28 18
-35 0z"/>
<path d="M22936 12702 c-7 -12 -73 -259 -131 -492 -114 -457 -206 -750 -304
-964 -90 -195 -288 -508 -439 -692 -180 -220 -509 -525 -709 -656 -68 -44
-123 -82 -123 -85 0 -9 269 149 390 230 308 206 631 465 892 716 78 74 94 97
147 200 181 354 332 804 405 1201 29 158 56 381 56 461 l0 56 -42 11 c-60 15
-136 23 -142 14z"/>
<path d="M19732 12489 c-18 -6 -57 -33 -87 -62 -80 -78 -103 -173 -69 -286 18
-63 88 -144 140 -163 19 -7 34 -19 34 -28 0 -18 -60 -232 -85 -300 -22 -63
-63 -132 -175 -301 -153 -228 -209 -353 -210 -465 0 -184 160 -250 510 -210
19 2 67 7 106 11 40 4 76 10 82 14 5 3 14 36 20 74 6 37 23 113 39 169 l28
101 8 -119 c11 -165 19 -192 64 -211 34 -14 46 -13 166 12 151 31 218 54 284
98 123 83 123 221 0 434 -24 43 -57 101 -72 128 -15 28 -36 62 -47 77 -36 52
-96 193 -109 255 -15 71 -10 96 55 308 21 66 43 147 50 179 l12 60 21 -36 c20
-35 23 -36 65 -31 55 7 148 39 166 57 12 11 4 23 -47 79 -34 35 -87 84 -118
108 l-56 44 -86 0 -86 0 -145 -72 c-145 -71 -145 -71 -159 -50 -33 50 -108
113 -147 125 -48 14 -105 14 -152 1z"/>
<path d="M20645 12140 c-27 -10 -49 -37 -37 -44 11 -6 70 11 89 27 28 22 -10
35 -52 17z"/>
<path d="M20653 12014 c-3 -8 1 -23 10 -32 15 -14 17 -14 23 1 8 21 -1 47 -16
47 -6 0 -13 -7 -17 -16z"/>
<path d="M12878 10532 c1 -64 18 -1561 37 -3326 19 -1765 36 -3211 39 -3213 7
-7 387 -58 576 -77 226 -24 521 -22 646 4 114 24 196 58 217 92 12 19 20 149
42 698 14 371 29 688 33 705 6 23 14 -5 35 -125 35 -196 191 -1107 209 -1220
l13 -85 160 -27 c471 -81 960 -100 1175 -47 180 45 298 111 350 193 l20 33
-116 444 c-63 244 -139 539 -169 654 -29 116 -106 410 -170 655 -64 245 -143
549 -175 675 -32 127 -104 403 -159 615 l-99 385 -52 465 c-65 597 -77 705
-165 1480 -40 355 -71 646 -70 648 1 2 38 11 82 22 122 29 275 92 260 106 -2
2 -46 -5 -98 -16 -224 -46 -318 -54 -709 -56 l-374 -2 -46 -98 c-92 -196 -260
-467 -284 -458 -28 11 -75 -140 -141 -454 -57 -268 -110 -402 -210 -527 -18
-22 -41 -61 -53 -87 -23 -53 -66 -98 -93 -98 -10 0 -29 -21 -48 -54 -32 -57
-62 -76 -86 -56 -19 15 -18 56 0 140 21 94 49 465 41 530 -14 108 -33 105 -71
-13 -47 -145 -113 -248 -151 -233 -15 6 -16 24 -10 194 8 228 24 465 37 552
12 80 62 236 90 285 15 25 17 35 8 33 -17 -4 -26 111 -28 353 l-1 166 -107 43
c-144 56 -245 112 -372 207 -15 11 -16 2 -13 -105z"/>
<path d="M25859 10484 c-196 -35 -362 -124 -509 -273 -113 -114 -178 -218
-226 -358 -210 -619 247 -1256 901 -1256 639 0 1098 620 908 1228 -74 238
-246 445 -463 558 -201 105 -404 139 -611 101z m271 -24 c234 -31 416 -122
571 -288 103 -110 180 -249 221 -400 17 -62 21 -106 21 -227 0 -121 -4 -165
-21 -227 -90 -333 -350 -588 -679 -670 -68 -17 -118 -22 -218 -22 -204 0 -345
43 -508 152 -144 98 -252 225 -328 387 -124 265 -107 598 43 848 190 314 547
492 898 447z"/>
<path d="M3168 10455 c-81 -16 -145 -44 -209 -90 l-48 -34 -21 29 c-78 110
-266 114 -355 8 -100 -118 -60 -295 80 -359 22 -10 48 -19 58 -19 25 0 22 -15
-19 -89 -49 -88 -279 -445 -321 -498 -51 -64 -209 -215 -308 -295 -113 -90
-300 -213 -417 -274 -60 -31 -87 -49 -80 -56 22 -22 333 164 507 302 44 35
109 91 145 124 71 68 67 57 -38 -89 -123 -171 -217 -280 -364 -427 l-148 -147
57 -61 c66 -72 186 -154 307 -211 48 -22 89 -39 90 -37 1 1 15 32 31 68 33 76
99 196 180 330 32 52 89 149 127 215 39 66 67 109 63 95 -14 -53 -150 -321
-260 -514 -63 -111 -115 -206 -115 -212 0 -9 169 -98 175 -92 2 2 23 53 48
113 68 166 120 274 188 393 120 209 202 313 300 377 75 49 263 145 286 145 15
0 64 65 83 110 11 27 8 45 -25 162 -21 72 -40 151 -43 175 -3 28 -9 43 -19 43
-52 0 -103 61 -103 124 0 50 24 69 77 63 32 -3 43 -1 43 9 0 8 20 33 44 57 45
43 65 91 66 157 l1 35 15 -27 14 -28 67 25 c86 31 106 52 113 118 l6 52 22
-43 c13 -24 29 -45 36 -48 42 -16 226 44 226 74 0 20 -184 197 -223 215 -43
21 -176 47 -229 46 -24 0 -73 -7 -110 -14z"/>
<path d="M3585 10101 c-30 -13 -50 -40 -38 -52 13 -13 126 28 120 44 -4 15
-55 19 -82 8z"/>
<path d="M3607 9945 c-8 -20 1 -42 19 -49 17 -6 27 14 22 41 -4 23 -34 29 -41
8z"/>
<path d="M3491 9334 c16 -44 22 -49 30 -28 15 38 10 54 -16 54 -22 0 -24 -2
-14 -26z"/>
<path d="M21650 7665 c-561 -146 -1264 -285 -1694 -336 -282 -34 -566 -31
-682 6 -18 6 -18 6 1 -10 11 -9 50 -25 88 -36 52 -16 68 -26 72 -42 2 -12 16
-76 31 -142 69 -318 177 -608 309 -835 l43 -75 -258 -2195 c-142 -1207 -261
-2217 -264 -2245 -27 -223 -66 -567 -66 -583 0 -27 88 -93 212 -158 110 -58
205 -92 333 -119 107 -23 407 -31 556 -16 97 10 339 48 346 55 3 3 43 952 43
1022 0 31 2 55 4 53 3 -2 46 -243 96 -534 50 -292 95 -533 99 -537 12 -13 211
-37 378 -46 320 -18 532 16 720 116 92 49 155 96 193 145 l21 26 -320 3158
c-177 1737 -323 3170 -325 3184 -5 24 0 28 67 53 108 42 195 99 197 129 0 12
-27 7 -200 -38z"/>
<path d="M9954 7273 c-113 -152 -755 -1024 -863 -1171 -45 -63 -81 -116 -78
-118 2 -2 468 -3 1035 -2 l1030 3 -490 665 c-269 366 -502 682 -518 703 l-28
38 -88 -118z m580 -594 c268 -364 485 -663 483 -665 -2 -2 -443 -3 -979 -2
l-976 3 395 535 c216 294 435 592 486 662 51 70 95 128 98 128 3 0 225 -297
493 -661z"/>
<path d="M7075 5880 c-3 -5 3 -10 14 -10 29 0 51 -11 51 -25 0 -20 -83 -55
-210 -88 -102 -26 -135 -30 -300 -34 -153 -4 -213 -1 -345 17 -88 12 -186 24
-217 27 l-57 5 -3 -78 -3 -78 -175 -22 c-96 -12 -319 -45 -495 -73 -397 -63
-524 -78 -742 -91 -202 -11 -421 0 -579 31 -238 46 -477 157 -614 285 l-50 46
-77 -20 c-201 -54 -411 -77 -828 -92 l-300 -11 -135 35 c-140 36 -230 52 -230
43 0 -13 126 -91 206 -129 79 -37 84 -40 89 -76 65 -406 222 -760 422 -953
170 -164 484 -324 823 -418 154 -43 402 -104 510 -125 l65 -12 3 -557 2 -557
36 0 c50 0 178 45 249 87 288 173 541 493 646 816 17 53 35 97 40 97 20 0 -27
-142 -90 -275 -142 -298 -388 -560 -644 -686 -69 -33 -103 -44 -214 -65 l-23
-4 0 -477 0 -476 72 6 c105 9 196 56 279 145 63 67 90 110 220 340 113 202
182 252 374 272 148 15 264 43 355 87 110 52 228 174 293 301 l47 94 14 -34
c8 -18 188 -494 400 -1057 213 -563 394 -1037 402 -1053 24 -47 92 -72 189
-72 44 1 106 6 137 13 100 21 329 96 448 147 137 57 451 214 535 267 33 21
123 75 200 119 77 44 144 84 148 88 5 4 -55 136 -132 294 -77 158 -143 297
-147 309 -6 19 -4 19 25 -6 42 -35 68 -41 147 -34 75 6 181 52 283 124 36 26
91 63 121 84 74 50 276 239 397 371 174 191 445 516 441 530 -2 4 -311 413
-688 910 -377 496 -782 1031 -901 1189 -252 335 -290 381 -383 460 -70 59 -89
68 -101 49z"/>
<path d="M18448 4460 c-309 -56 -555 -277 -638 -570 -104 -372 67 -752 417
-929 116 -58 201 -76 358 -76 132 1 146 3 235 33 131 45 221 101 316 196 95
95 151 185 196 316 30 89 32 103 33 235 0 116 -4 153 -23 218 -76 263 -267
460 -529 547 -81 26 -117 33 -208 35 -60 2 -131 0 -157 -5z m322 -51 c221 -54
394 -195 495 -404 61 -125 78 -216 73 -368 -4 -98 -10 -138 -32 -202 -39 -116
-98 -209 -190 -301 -148 -148 -296 -213 -502 -222 -196 -8 -328 31 -476 140
-182 135 -288 312 -318 535 -41 303 132 621 414 764 178 89 336 106 536 58z"/>
<path d="M5531 3118 c-6 -17 -31 -64 -56 -104 -127 -204 -309 -301 -630 -337
-215 -24 -239 -47 -446 -416 -70 -125 -164 -235 -236 -277 -60 -36 -155 -64
-214 -64 l-49 0 1 -527 1 -528 33 125 c63 241 164 475 281 653 86 131 172 215
272 264 72 36 81 38 171 38 83 0 104 -4 154 -27 62 -29 153 -109 197 -174 16
-22 67 -112 115 -200 48 -87 107 -189 131 -225 78 -117 174 -188 257 -189 l37
0 0 1010 c0 556 -2 1010 -4 1010 -2 0 -9 -14 -15 -32z"/>
<path d="M4545 1910 c-202 -67 -402 -351 -542 -769 -92 -275 -96 -306 -100
-728 l-4 -373 -1949 0 c-1943 0 -1950 0 -1950 -20 0 -20 5 -20 13602 -18
12946 3 13603 4 13606 21 3 16 -518 17 -10827 17 l-10831 0 0 264 0 263 -52 7
c-190 22 -445 -19 -633 -104 -166 -74 -343 -227 -421 -364 -21 -36 -42 -66
-47 -66 -28 0 58 133 146 226 114 120 240 199 417 262 151 53 237 67 423 67
l167 0 0 256 0 256 -55 6 c-131 13 -220 109 -380 407 -128 237 -196 322 -305
376 -74 37 -179 43 -265 14z"/>
</g>
</svg>
