<svg width="20" height="20" viewBox="0 0 20 20" fill="none" xmlns="http://www.w3.org/2000/svg">
<path d="M10 19.25C15.1086 19.25 19.25 15.1086 19.25 10C19.25 4.89137 15.1086 0.75 10 0.75M10 19.25C4.89137 19.25 0.75 15.1086 0.75 10C0.75 4.89137 4.89137 0.75 10 0.75M10 19.25C7.65279 19.25 5.75 15.1086 5.75 10C5.75 4.89137 7.65279 0.75 10 0.75M10 19.25C12.3472 19.25 14.25 15.1086 14.25 10C14.25 4.89137 12.3472 0.75 10 0.75M19 10H1" stroke="white" stroke-width="1.5" stroke-linecap="square"/>
</svg>
