<svg width="412" height="217" viewBox="0 0 412 217" fill="none" xmlns="http://www.w3.org/2000/svg">
<rect width="410" height="217" rx="20" fill="#747474"/>
<rect width="412" height="217" rx="20" fill="#404040"/>
<path d="M105.003 142.758H100.878V131.121H105.037C106.207 131.121 107.215 131.354 108.059 131.82C108.904 132.282 109.554 132.947 110.008 133.815C110.467 134.682 110.696 135.72 110.696 136.928C110.696 138.14 110.467 139.182 110.008 140.053C109.554 140.924 108.9 141.593 108.048 142.059C107.2 142.525 106.184 142.758 105.003 142.758ZM103.338 140.65H104.9C105.628 140.65 106.239 140.521 106.736 140.263C107.236 140.002 107.611 139.599 107.861 139.053C108.114 138.504 108.241 137.796 108.241 136.928C108.241 136.068 108.114 135.366 107.861 134.82C107.611 134.275 107.237 133.873 106.741 133.616C106.245 133.358 105.633 133.229 104.906 133.229H103.338V140.65ZM112.473 142.758V134.031H114.819V135.553H114.91C115.069 135.012 115.336 134.603 115.711 134.326C116.086 134.046 116.518 133.906 117.007 133.906C117.128 133.906 117.259 133.913 117.399 133.928C117.539 133.943 117.662 133.964 117.768 133.991V136.138C117.655 136.104 117.497 136.074 117.297 136.048C117.096 136.021 116.912 136.008 116.745 136.008C116.389 136.008 116.071 136.085 115.791 136.241C115.514 136.392 115.295 136.604 115.132 136.877C114.973 137.15 114.893 137.464 114.893 137.82V142.758H112.473ZM121.258 142.923C120.701 142.923 120.205 142.826 119.77 142.633C119.334 142.436 118.989 142.146 118.736 141.763C118.486 141.377 118.361 140.896 118.361 140.32C118.361 139.835 118.45 139.428 118.628 139.099C118.806 138.769 119.048 138.504 119.355 138.303C119.662 138.103 120.01 137.951 120.4 137.849C120.794 137.746 121.207 137.674 121.639 137.633C122.147 137.58 122.556 137.531 122.866 137.485C123.177 137.436 123.402 137.364 123.542 137.269C123.682 137.174 123.753 137.034 123.753 136.849V136.815C123.753 136.455 123.639 136.176 123.412 135.979C123.188 135.782 122.87 135.684 122.457 135.684C122.022 135.684 121.675 135.781 121.417 135.974C121.16 136.163 120.989 136.402 120.906 136.69L118.667 136.508C118.781 135.978 119.004 135.519 119.338 135.133C119.671 134.743 120.101 134.443 120.628 134.235C121.158 134.023 121.772 133.917 122.468 133.917C122.953 133.917 123.417 133.974 123.861 134.087C124.307 134.201 124.703 134.377 125.048 134.616C125.397 134.854 125.671 135.161 125.872 135.536C126.073 135.907 126.173 136.353 126.173 136.871V142.758H123.878V141.548H123.809C123.669 141.82 123.482 142.061 123.247 142.269C123.012 142.474 122.73 142.635 122.4 142.752C122.071 142.866 121.69 142.923 121.258 142.923ZM121.951 141.252C122.307 141.252 122.622 141.182 122.895 141.042C123.167 140.898 123.381 140.705 123.537 140.462C123.692 140.22 123.77 139.945 123.77 139.638V138.712C123.694 138.762 123.59 138.807 123.457 138.849C123.328 138.887 123.182 138.923 123.02 138.957C122.857 138.987 122.694 139.015 122.531 139.042C122.368 139.065 122.22 139.085 122.088 139.104C121.804 139.146 121.556 139.212 121.343 139.303C121.131 139.394 120.967 139.517 120.849 139.673C120.732 139.824 120.673 140.013 120.673 140.241C120.673 140.57 120.792 140.822 121.031 140.996C121.273 141.167 121.58 141.252 121.951 141.252ZM131.983 146.212C131.199 146.212 130.526 146.104 129.966 145.888C129.409 145.676 128.966 145.387 128.636 145.019C128.307 144.652 128.093 144.239 127.994 143.781L130.233 143.479C130.301 143.654 130.409 143.817 130.557 143.968C130.704 144.12 130.899 144.241 131.142 144.332C131.388 144.426 131.687 144.474 132.04 144.474C132.566 144.474 133 144.345 133.341 144.087C133.685 143.834 133.858 143.407 133.858 142.809V141.212H133.755C133.649 141.455 133.49 141.684 133.278 141.9C133.066 142.116 132.793 142.292 132.46 142.428C132.127 142.565 131.729 142.633 131.267 142.633C130.611 142.633 130.015 142.481 129.477 142.178C128.943 141.871 128.517 141.404 128.199 140.775C127.884 140.142 127.727 139.343 127.727 138.377C127.727 137.388 127.888 136.563 128.21 135.9C128.532 135.237 128.96 134.741 129.494 134.411C130.032 134.082 130.621 133.917 131.261 133.917C131.75 133.917 132.159 134 132.488 134.167C132.818 134.33 133.083 134.534 133.284 134.781C133.488 135.023 133.646 135.262 133.755 135.496H133.846V134.031H136.25V142.843C136.25 143.585 136.068 144.207 135.704 144.707C135.341 145.207 134.837 145.582 134.193 145.832C133.553 146.085 132.816 146.212 131.983 146.212ZM132.034 140.815C132.424 140.815 132.754 140.718 133.022 140.525C133.295 140.328 133.504 140.048 133.647 139.684C133.795 139.317 133.869 138.877 133.869 138.366C133.869 137.854 133.797 137.411 133.653 137.036C133.509 136.657 133.301 136.364 133.028 136.156C132.755 135.947 132.424 135.843 132.034 135.843C131.636 135.843 131.301 135.951 131.028 136.167C130.755 136.379 130.549 136.674 130.409 137.053C130.269 137.432 130.199 137.87 130.199 138.366C130.199 138.87 130.269 139.305 130.409 139.673C130.553 140.036 130.759 140.318 131.028 140.519C131.301 140.716 131.636 140.815 132.034 140.815ZM145.447 142.928C144.644 142.928 143.951 142.784 143.368 142.496C142.784 142.209 142.335 141.818 142.021 141.326C141.71 140.83 141.555 140.277 141.555 139.667C141.555 139.212 141.646 138.809 141.828 138.457C142.01 138.104 142.263 137.781 142.589 137.485C142.915 137.186 143.294 136.888 143.726 136.593L145.981 135.11C146.273 134.924 146.487 134.729 146.623 134.525C146.76 134.317 146.828 134.091 146.828 133.849C146.828 133.618 146.735 133.404 146.549 133.207C146.364 133.01 146.101 132.913 145.76 132.917C145.532 132.917 145.335 132.968 145.169 133.07C145.002 133.169 144.871 133.299 144.777 133.462C144.686 133.621 144.64 133.799 144.64 133.996C144.64 134.239 144.709 134.485 144.845 134.735C144.981 134.985 145.163 135.25 145.39 135.531C145.618 135.807 145.866 136.106 146.135 136.428L151.652 142.758H149.129L144.527 137.633C144.224 137.288 143.921 136.928 143.618 136.553C143.318 136.174 143.068 135.773 142.868 135.349C142.667 134.921 142.566 134.457 142.566 133.957C142.566 133.392 142.697 132.885 142.959 132.434C143.224 131.983 143.595 131.627 144.072 131.366C144.549 131.101 145.106 130.968 145.743 130.968C146.364 130.968 146.9 131.095 147.351 131.349C147.805 131.599 148.154 131.932 148.396 132.349C148.642 132.762 148.765 133.216 148.765 133.712C148.765 134.262 148.629 134.76 148.356 135.207C148.087 135.65 147.709 136.048 147.22 136.4L144.845 138.11C144.523 138.345 144.284 138.585 144.129 138.832C143.977 139.074 143.902 139.307 143.902 139.531C143.902 139.807 143.97 140.055 144.106 140.275C144.243 140.495 144.436 140.669 144.686 140.798C144.936 140.923 145.229 140.985 145.566 140.985C145.976 140.985 146.379 140.892 146.777 140.707C147.178 140.517 147.542 140.25 147.868 139.906C148.197 139.557 148.46 139.144 148.657 138.667C148.854 138.19 148.953 137.661 148.953 137.082H150.959C150.959 137.794 150.881 138.436 150.726 139.008C150.57 139.576 150.354 140.072 150.078 140.496C149.801 140.917 149.485 141.262 149.129 141.531C149.015 141.603 148.906 141.671 148.799 141.735C148.693 141.799 148.584 141.868 148.47 141.94C148.038 142.288 147.555 142.54 147.021 142.695C146.491 142.851 145.966 142.928 145.447 142.928ZM159.579 142.9C158.916 142.9 158.316 142.729 157.778 142.388C157.244 142.044 156.82 141.538 156.505 140.871C156.195 140.201 156.04 139.379 156.04 138.406C156.04 137.406 156.2 136.574 156.522 135.911C156.844 135.245 157.272 134.746 157.807 134.417C158.344 134.084 158.933 133.917 159.574 133.917C160.062 133.917 160.469 134 160.795 134.167C161.125 134.33 161.39 134.534 161.591 134.781C161.795 135.023 161.95 135.262 162.057 135.496H162.13V131.121H164.545V142.758H162.159V141.36H162.057C161.943 141.603 161.782 141.843 161.574 142.082C161.369 142.317 161.102 142.512 160.772 142.667C160.447 142.822 160.049 142.9 159.579 142.9ZM160.346 140.974C160.736 140.974 161.066 140.868 161.335 140.656C161.608 140.44 161.816 140.138 161.96 139.752C162.108 139.366 162.182 138.913 162.182 138.394C162.182 137.875 162.11 137.424 161.966 137.042C161.822 136.659 161.613 136.364 161.341 136.156C161.068 135.947 160.736 135.843 160.346 135.843C159.949 135.843 159.613 135.951 159.341 136.167C159.068 136.383 158.861 136.682 158.721 137.065C158.581 137.447 158.511 137.89 158.511 138.394C158.511 138.902 158.581 139.351 158.721 139.741C158.865 140.127 159.072 140.43 159.341 140.65C159.613 140.866 159.949 140.974 160.346 140.974ZM166.535 142.758V134.031H168.882V135.553H168.973C169.132 135.012 169.399 134.603 169.774 134.326C170.149 134.046 170.581 133.906 171.069 133.906C171.191 133.906 171.321 133.913 171.461 133.928C171.602 133.943 171.725 133.964 171.831 133.991V136.138C171.717 136.104 171.56 136.074 171.359 136.048C171.158 136.021 170.975 136.008 170.808 136.008C170.452 136.008 170.134 136.085 169.853 136.241C169.577 136.392 169.357 136.604 169.194 136.877C169.035 137.15 168.956 137.464 168.956 137.82V142.758H166.535ZM176.619 142.928C175.736 142.928 174.973 142.741 174.329 142.366C173.689 141.987 173.195 141.46 172.846 140.786C172.498 140.108 172.324 139.322 172.324 138.428C172.324 137.527 172.498 136.739 172.846 136.065C173.195 135.387 173.689 134.86 174.329 134.485C174.973 134.106 175.736 133.917 176.619 133.917C177.502 133.917 178.263 134.106 178.903 134.485C179.547 134.86 180.043 135.387 180.392 136.065C180.74 136.739 180.915 137.527 180.915 138.428C180.915 139.322 180.74 140.108 180.392 140.786C180.043 141.46 179.547 141.987 178.903 142.366C178.263 142.741 177.502 142.928 176.619 142.928ZM176.63 141.053C177.032 141.053 177.367 140.94 177.636 140.712C177.905 140.481 178.108 140.167 178.244 139.769C178.384 139.371 178.454 138.919 178.454 138.411C178.454 137.904 178.384 137.451 178.244 137.053C178.108 136.656 177.905 136.341 177.636 136.11C177.367 135.879 177.032 135.763 176.63 135.763C176.225 135.763 175.884 135.879 175.608 136.11C175.335 136.341 175.129 136.656 174.988 137.053C174.852 137.451 174.784 137.904 174.784 138.411C174.784 138.919 174.852 139.371 174.988 139.769C175.129 140.167 175.335 140.481 175.608 140.712C175.884 140.94 176.225 141.053 176.63 141.053ZM182.488 146.031V134.031H184.875V135.496H184.983C185.089 135.262 185.242 135.023 185.443 134.781C185.647 134.534 185.913 134.33 186.238 134.167C186.568 134 186.977 133.917 187.466 133.917C188.102 133.917 188.689 134.084 189.227 134.417C189.765 134.746 190.195 135.245 190.517 135.911C190.839 136.574 191 137.406 191 138.406C191 139.379 190.843 140.201 190.528 140.871C190.218 141.538 189.793 142.044 189.255 142.388C188.721 142.729 188.123 142.9 187.46 142.9C186.99 142.9 186.591 142.822 186.261 142.667C185.935 142.512 185.668 142.317 185.46 142.082C185.252 141.843 185.093 141.603 184.983 141.36H184.909V146.031H182.488ZM184.858 138.394C184.858 138.913 184.93 139.366 185.074 139.752C185.218 140.138 185.426 140.44 185.699 140.656C185.971 140.868 186.303 140.974 186.693 140.974C187.087 140.974 187.42 140.866 187.693 140.65C187.966 140.43 188.172 140.127 188.312 139.741C188.456 139.351 188.528 138.902 188.528 138.394C188.528 137.89 188.458 137.447 188.318 137.065C188.178 136.682 187.971 136.383 187.699 136.167C187.426 135.951 187.091 135.843 186.693 135.843C186.299 135.843 185.966 135.947 185.693 136.156C185.424 136.364 185.218 136.659 185.074 137.042C184.93 137.424 184.858 137.875 184.858 138.394ZM201.01 134.031V135.849H195.623V134.031H201.01ZM196.856 142.758V133.4C196.856 132.767 196.979 132.243 197.226 131.826C197.476 131.409 197.816 131.097 198.248 130.888C198.68 130.68 199.171 130.576 199.72 130.576C200.091 130.576 200.43 130.604 200.737 130.661C201.048 130.718 201.279 130.769 201.43 130.815L200.998 132.633C200.904 132.603 200.786 132.574 200.646 132.548C200.51 132.521 200.37 132.508 200.226 132.508C199.87 132.508 199.621 132.591 199.481 132.758C199.341 132.921 199.271 133.15 199.271 133.445V142.758H196.856ZM202.488 142.758V134.031H204.909V142.758H202.488ZM203.704 132.906C203.344 132.906 203.036 132.786 202.778 132.548C202.524 132.305 202.397 132.015 202.397 131.678C202.397 131.345 202.524 131.059 202.778 130.82C203.036 130.578 203.344 130.457 203.704 130.457C204.064 130.457 204.371 130.578 204.625 130.82C204.882 131.059 205.011 131.345 205.011 131.678C205.011 132.015 204.882 132.305 204.625 132.548C204.371 132.786 204.064 132.906 203.704 132.906ZM209.268 131.121V142.758H206.848V131.121H209.268ZM215.184 142.928C214.287 142.928 213.514 142.746 212.866 142.383C212.222 142.015 211.726 141.496 211.378 140.826C211.029 140.152 210.855 139.354 210.855 138.434C210.855 137.536 211.029 136.748 211.378 136.07C211.726 135.392 212.217 134.864 212.849 134.485C213.486 134.106 214.232 133.917 215.088 133.917C215.664 133.917 216.2 134.01 216.696 134.195C217.196 134.377 217.631 134.652 218.003 135.019C218.378 135.387 218.669 135.849 218.878 136.406C219.086 136.959 219.19 137.606 219.19 138.349V139.013H211.821V137.513H216.912C216.912 137.165 216.836 136.856 216.684 136.587C216.533 136.318 216.323 136.108 216.054 135.957C215.789 135.801 215.48 135.724 215.128 135.724C214.76 135.724 214.434 135.809 214.15 135.979C213.87 136.146 213.65 136.371 213.491 136.656C213.332 136.936 213.251 137.248 213.247 137.593V139.019C213.247 139.451 213.326 139.824 213.486 140.138C213.648 140.453 213.878 140.695 214.173 140.866C214.468 141.036 214.819 141.121 215.224 141.121C215.493 141.121 215.739 141.084 215.963 141.008C216.186 140.932 216.378 140.818 216.537 140.667C216.696 140.515 216.817 140.33 216.9 140.11L219.139 140.258C219.025 140.796 218.792 141.265 218.44 141.667C218.092 142.065 217.641 142.375 217.088 142.599C216.539 142.818 215.904 142.928 215.184 142.928ZM228.031 136.519L225.815 136.656C225.777 136.466 225.696 136.296 225.571 136.144C225.446 135.989 225.281 135.866 225.076 135.775C224.876 135.68 224.635 135.633 224.355 135.633C223.98 135.633 223.664 135.712 223.406 135.871C223.148 136.027 223.02 136.235 223.02 136.496C223.02 136.705 223.103 136.881 223.27 137.025C223.436 137.169 223.722 137.284 224.128 137.371L225.707 137.69C226.556 137.864 227.188 138.144 227.605 138.531C228.022 138.917 228.23 139.424 228.23 140.053C228.23 140.625 228.061 141.127 227.724 141.559C227.391 141.991 226.932 142.328 226.349 142.57C225.77 142.809 225.101 142.928 224.343 142.928C223.188 142.928 222.268 142.688 221.582 142.207C220.9 141.722 220.501 141.063 220.383 140.229L222.764 140.104C222.836 140.457 223.01 140.726 223.287 140.911C223.563 141.093 223.917 141.184 224.349 141.184C224.773 141.184 225.114 141.103 225.372 140.94C225.633 140.773 225.766 140.559 225.77 140.298C225.766 140.078 225.673 139.898 225.491 139.758C225.309 139.614 225.029 139.504 224.65 139.428L223.139 139.127C222.287 138.957 221.652 138.661 221.236 138.241C220.823 137.82 220.616 137.284 220.616 136.633C220.616 136.072 220.768 135.589 221.071 135.184C221.378 134.779 221.807 134.466 222.361 134.246C222.917 134.027 223.569 133.917 224.315 133.917C225.417 133.917 226.285 134.15 226.917 134.616C227.554 135.082 227.925 135.716 228.031 136.519ZM237.4 142.928C236.518 142.928 235.754 142.741 235.111 142.366C234.47 141.987 233.976 141.46 233.628 140.786C233.279 140.108 233.105 139.322 233.105 138.428C233.105 137.527 233.279 136.739 233.628 136.065C233.976 135.387 234.47 134.86 235.111 134.485C235.754 134.106 236.518 133.917 237.4 133.917C238.283 133.917 239.044 134.106 239.684 134.485C240.328 134.86 240.825 135.387 241.173 136.065C241.522 136.739 241.696 137.527 241.696 138.428C241.696 139.322 241.522 140.108 241.173 140.786C240.825 141.46 240.328 141.987 239.684 142.366C239.044 142.741 238.283 142.928 237.4 142.928ZM237.412 141.053C237.813 141.053 238.148 140.94 238.417 140.712C238.686 140.481 238.889 140.167 239.025 139.769C239.165 139.371 239.236 138.919 239.236 138.411C239.236 137.904 239.165 137.451 239.025 137.053C238.889 136.656 238.686 136.341 238.417 136.11C238.148 135.879 237.813 135.763 237.412 135.763C237.006 135.763 236.665 135.879 236.389 136.11C236.116 136.341 235.91 136.656 235.77 137.053C235.633 137.451 235.565 137.904 235.565 138.411C235.565 138.919 235.633 139.371 235.77 139.769C235.91 140.167 236.116 140.481 236.389 140.712C236.665 140.94 237.006 141.053 237.412 141.053ZM243.27 142.758V134.031H245.616V135.553H245.707C245.866 135.012 246.133 134.603 246.508 134.326C246.883 134.046 247.315 133.906 247.804 133.906C247.925 133.906 248.056 133.913 248.196 133.928C248.336 133.943 248.459 133.964 248.565 133.991V136.138C248.451 136.104 248.294 136.074 248.093 136.048C247.893 136.021 247.709 136.008 247.542 136.008C247.186 136.008 246.868 136.085 246.588 136.241C246.311 136.392 246.092 136.604 245.929 136.877C245.77 137.15 245.69 137.464 245.69 137.82V142.758H243.27Z" fill="#0F0F0F"/>
<path d="M253.565 142.758V131.121H258.224C259.08 131.121 259.794 131.248 260.366 131.502C260.938 131.756 261.368 132.108 261.656 132.559C261.944 133.006 262.088 133.521 262.088 134.104C262.088 134.559 261.997 134.959 261.815 135.303C261.633 135.644 261.383 135.924 261.065 136.144C260.751 136.36 260.391 136.513 259.986 136.604V136.718C260.429 136.737 260.843 136.862 261.23 137.093C261.62 137.324 261.936 137.648 262.179 138.065C262.421 138.478 262.542 138.97 262.542 139.542C262.542 140.159 262.389 140.71 262.082 141.195C261.779 141.676 261.33 142.057 260.736 142.337C260.141 142.618 259.408 142.758 258.537 142.758H253.565ZM256.025 140.746H258.031C258.717 140.746 259.217 140.616 259.531 140.354C259.845 140.089 260.003 139.737 260.003 139.298C260.003 138.976 259.925 138.692 259.77 138.445C259.614 138.199 259.393 138.006 259.105 137.866C258.821 137.726 258.482 137.656 258.088 137.656H256.025V140.746ZM256.025 135.991H257.849C258.186 135.991 258.486 135.932 258.747 135.815C259.012 135.693 259.22 135.523 259.372 135.303C259.527 135.084 259.605 134.82 259.605 134.513C259.605 134.093 259.455 133.754 259.156 133.496C258.861 133.239 258.44 133.11 257.895 133.11H256.025V135.991ZM264.098 142.758V134.031H266.444V135.553H266.535C266.694 135.012 266.961 134.603 267.336 134.326C267.711 134.046 268.143 133.906 268.632 133.906C268.753 133.906 268.884 133.913 269.024 133.928C269.164 133.943 269.287 133.964 269.393 133.991V136.138C269.28 136.104 269.122 136.074 268.922 136.048C268.721 136.021 268.537 136.008 268.37 136.008C268.014 136.008 267.696 136.085 267.416 136.241C267.139 136.392 266.92 136.604 266.757 136.877C266.598 137.15 266.518 137.464 266.518 137.82V142.758H264.098ZM274.182 142.928C273.299 142.928 272.536 142.741 271.892 142.366C271.252 141.987 270.757 141.46 270.409 140.786C270.06 140.108 269.886 139.322 269.886 138.428C269.886 137.527 270.06 136.739 270.409 136.065C270.757 135.387 271.252 134.86 271.892 134.485C272.536 134.106 273.299 133.917 274.182 133.917C275.064 133.917 275.825 134.106 276.466 134.485C277.11 134.86 277.606 135.387 277.954 136.065C278.303 136.739 278.477 137.527 278.477 138.428C278.477 139.322 278.303 140.108 277.954 140.786C277.606 141.46 277.11 141.987 276.466 142.366C275.825 142.741 275.064 142.928 274.182 142.928ZM274.193 141.053C274.594 141.053 274.93 140.94 275.199 140.712C275.468 140.481 275.67 140.167 275.807 139.769C275.947 139.371 276.017 138.919 276.017 138.411C276.017 137.904 275.947 137.451 275.807 137.053C275.67 136.656 275.468 136.341 275.199 136.11C274.93 135.879 274.594 135.763 274.193 135.763C273.788 135.763 273.447 135.879 273.17 136.11C272.897 136.341 272.691 136.656 272.551 137.053C272.415 137.451 272.346 137.904 272.346 138.411C272.346 138.919 272.415 139.371 272.551 139.769C272.691 140.167 272.897 140.481 273.17 140.712C273.447 140.94 273.788 141.053 274.193 141.053ZM281.554 142.758L279.179 134.031H281.628L282.98 139.894H283.059L284.468 134.031H286.872L288.304 139.86H288.378L289.707 134.031H292.15L289.781 142.758H287.218L285.718 137.269H285.611L284.111 142.758H281.554ZM300.703 136.519L298.487 136.656C298.449 136.466 298.368 136.296 298.243 136.144C298.118 135.989 297.953 135.866 297.748 135.775C297.548 135.68 297.307 135.633 297.027 135.633C296.652 135.633 296.335 135.712 296.078 135.871C295.82 136.027 295.691 136.235 295.691 136.496C295.691 136.705 295.775 136.881 295.941 137.025C296.108 137.169 296.394 137.284 296.799 137.371L298.379 137.69C299.227 137.864 299.86 138.144 300.277 138.531C300.693 138.917 300.902 139.424 300.902 140.053C300.902 140.625 300.733 141.127 300.396 141.559C300.063 141.991 299.604 142.328 299.021 142.57C298.441 142.809 297.773 142.928 297.015 142.928C295.86 142.928 294.94 142.688 294.254 142.207C293.572 141.722 293.173 141.063 293.055 140.229L295.436 140.104C295.508 140.457 295.682 140.726 295.959 140.911C296.235 141.093 296.589 141.184 297.021 141.184C297.445 141.184 297.786 141.103 298.044 140.94C298.305 140.773 298.438 140.559 298.441 140.298C298.438 140.078 298.345 139.898 298.163 139.758C297.981 139.614 297.701 139.504 297.322 139.428L295.811 139.127C294.959 138.957 294.324 138.661 293.907 138.241C293.495 137.82 293.288 137.284 293.288 136.633C293.288 136.072 293.44 135.589 293.743 135.184C294.049 134.779 294.479 134.466 295.032 134.246C295.589 134.027 296.241 133.917 296.987 133.917C298.089 133.917 298.957 134.15 299.589 134.616C300.226 135.082 300.597 135.716 300.703 136.519ZM306.403 142.928C305.505 142.928 304.733 142.746 304.085 142.383C303.441 142.015 302.945 141.496 302.596 140.826C302.248 140.152 302.074 139.354 302.074 138.434C302.074 137.536 302.248 136.748 302.596 136.07C302.945 135.392 303.435 134.864 304.068 134.485C304.704 134.106 305.45 133.917 306.307 133.917C306.882 133.917 307.418 134.01 307.915 134.195C308.415 134.377 308.85 134.652 309.221 135.019C309.596 135.387 309.888 135.849 310.096 136.406C310.305 136.959 310.409 137.606 310.409 138.349V139.013H303.04V137.513H308.13C308.13 137.165 308.055 136.856 307.903 136.587C307.752 136.318 307.541 136.108 307.272 135.957C307.007 135.801 306.699 135.724 306.346 135.724C305.979 135.724 305.653 135.809 305.369 135.979C305.089 136.146 304.869 136.371 304.71 136.656C304.551 136.936 304.469 137.248 304.466 137.593V139.019C304.466 139.451 304.545 139.824 304.704 140.138C304.867 140.453 305.096 140.695 305.392 140.866C305.687 141.036 306.038 141.121 306.443 141.121C306.712 141.121 306.958 141.084 307.182 141.008C307.405 140.932 307.596 140.818 307.755 140.667C307.915 140.515 308.036 140.33 308.119 140.11L310.358 140.258C310.244 140.796 310.011 141.265 309.659 141.667C309.31 142.065 308.86 142.375 308.307 142.599C307.757 142.818 307.123 142.928 306.403 142.928Z" fill="#EAEAEA"/>
<path d="M252.554 145.94H311.022V147.031H252.554V145.94Z" fill="#EAEAEA"/>
<path d="M50.1167 167.893C50.0741 167.533 49.9013 167.253 49.5983 167.055C49.2952 166.856 48.9236 166.756 48.4832 166.756C48.1613 166.756 47.8795 166.808 47.6381 166.913C47.3989 167.017 47.2119 167.16 47.077 167.342C46.9444 167.524 46.8781 167.732 46.8781 167.964C46.8781 168.158 46.9243 168.325 47.0166 168.464C47.1113 168.602 47.232 168.716 47.3788 168.809C47.5256 168.899 47.6795 168.973 47.8405 169.033C48.0015 169.089 48.1494 169.136 48.2844 169.171L49.023 169.37C49.2124 169.42 49.4231 169.488 49.6551 169.576C49.8895 169.663 50.1132 169.783 50.3263 169.935C50.5417 170.084 50.7193 170.275 50.8589 170.51C50.9986 170.744 51.0684 171.032 51.0684 171.373C51.0684 171.766 50.9655 172.121 50.7595 172.438C50.5559 172.755 50.2576 173.007 49.8646 173.194C49.474 173.381 48.9993 173.475 48.4406 173.475C47.9198 173.475 47.4688 173.391 47.0876 173.223C46.7088 173.055 46.4105 172.82 46.1927 172.52C45.9773 172.219 45.8554 171.87 45.827 171.472H46.7361C46.7597 171.747 46.8521 171.974 47.0131 172.154C47.1764 172.332 47.3824 172.464 47.6309 172.552C47.8819 172.637 48.1518 172.68 48.4406 172.68C48.7768 172.68 49.0786 172.625 49.3461 172.516C49.6137 172.405 49.8256 172.251 49.9818 172.055C50.1381 171.856 50.2162 171.624 50.2162 171.359C50.2162 171.117 50.1487 170.921 50.0138 170.769C49.8788 170.618 49.7013 170.494 49.4811 170.4C49.2609 170.305 49.023 170.222 48.7673 170.151L47.8724 169.895C47.3042 169.732 46.8544 169.499 46.523 169.196C46.1916 168.893 46.0258 168.496 46.0258 168.006C46.0258 167.599 46.1359 167.244 46.3561 166.941C46.5786 166.636 46.8769 166.399 47.251 166.231C47.6274 166.06 48.0476 165.975 48.5116 165.975C48.9804 165.975 49.397 166.059 49.7616 166.227C50.1262 166.393 50.415 166.62 50.6281 166.909C50.8435 167.198 50.9572 167.526 50.969 167.893H50.1167ZM55.8403 171.117V167.893H56.6784V173.347H55.8403V172.424H55.7835C55.6556 172.701 55.4568 172.936 55.1869 173.131C54.917 173.322 54.5761 173.418 54.1642 173.418C53.8232 173.418 53.5202 173.344 53.2551 173.194C52.9899 173.043 52.7816 172.816 52.6301 172.513C52.4785 172.207 52.4028 171.823 52.4028 171.359V167.893H53.2409V171.302C53.2409 171.699 53.3521 172.017 53.5747 172.253C53.7996 172.49 54.086 172.609 54.434 172.609C54.6424 172.609 54.8543 172.555 55.0697 172.449C55.2875 172.342 55.4698 172.179 55.6166 171.959C55.7657 171.739 55.8403 171.458 55.8403 171.117ZM58.2133 175.393V167.893H59.023V168.759H59.1224C59.184 168.664 59.2692 168.544 59.3781 168.397C59.4894 168.248 59.648 168.115 59.854 167.999C60.0623 167.881 60.344 167.822 60.6991 167.822C61.1584 167.822 61.5632 167.936 61.9136 168.166C62.264 168.396 62.5374 168.721 62.7339 169.143C62.9304 169.564 63.0287 170.061 63.0287 170.634C63.0287 171.212 62.9304 171.712 62.7339 172.136C62.5374 172.558 62.2652 172.884 61.9172 173.116C61.5692 173.346 61.1679 173.461 60.7133 173.461C60.363 173.461 60.0824 173.403 59.8717 173.287C59.661 173.168 59.4988 173.035 59.3852 172.886C59.2716 172.734 59.184 172.609 59.1224 172.509H59.0514V175.393H58.2133ZM59.0372 170.62C59.0372 171.032 59.0976 171.395 59.2183 171.71C59.339 172.023 59.5154 172.268 59.7474 172.445C59.9794 172.62 60.2635 172.708 60.5997 172.708C60.9501 172.708 61.2425 172.616 61.4768 172.431C61.7136 172.244 61.8911 171.993 62.0095 171.678C62.1302 171.361 62.1906 171.008 62.1906 170.62C62.1906 170.236 62.1314 169.891 62.0131 169.583C61.897 169.273 61.7207 169.028 61.4839 168.848C61.2496 168.666 60.9548 168.574 60.5997 168.574C60.2588 168.574 59.9723 168.661 59.7403 168.834C59.5083 169.004 59.3331 169.243 59.2148 169.551C59.0964 169.856 59.0372 170.213 59.0372 170.62ZM64.3071 175.393V167.893H65.1167V168.759H65.2162C65.2777 168.664 65.363 168.544 65.4719 168.397C65.5831 168.248 65.7417 168.115 65.9477 167.999C66.156 167.881 66.4378 167.822 66.7929 167.822C67.2522 167.822 67.657 167.936 68.0074 168.166C68.3577 168.396 68.6312 168.721 68.8277 169.143C69.0242 169.564 69.1224 170.061 69.1224 170.634C69.1224 171.212 69.0242 171.712 68.8277 172.136C68.6312 172.558 68.3589 172.884 68.0109 173.116C67.6629 173.346 67.2616 173.461 66.8071 173.461C66.4567 173.461 66.1762 173.403 65.9655 173.287C65.7548 173.168 65.5926 173.035 65.479 172.886C65.3653 172.734 65.2777 172.609 65.2162 172.509H65.1452V175.393H64.3071ZM65.1309 170.62C65.1309 171.032 65.1913 171.395 65.3121 171.71C65.4328 172.023 65.6092 172.268 65.8412 172.445C66.0732 172.62 66.3573 172.708 66.6934 172.708C67.0438 172.708 67.3362 172.616 67.5706 172.431C67.8073 172.244 67.9849 171.993 68.1032 171.678C68.224 171.361 68.2844 171.008 68.2844 170.62C68.2844 170.236 68.2252 169.891 68.1068 169.583C67.9908 169.273 67.8144 169.028 67.5777 168.848C67.3433 168.666 67.0486 168.574 66.6934 168.574C66.3525 168.574 66.0661 168.661 65.8341 168.834C65.6021 169.004 65.4269 169.243 65.3085 169.551C65.1901 169.856 65.1309 170.213 65.1309 170.62ZM72.6167 173.461C72.1243 173.461 71.6923 173.344 71.3206 173.109C70.9513 172.875 70.6624 172.547 70.4541 172.126C70.2481 171.704 70.1452 171.212 70.1452 170.648C70.1452 170.08 70.2481 169.584 70.4541 169.16C70.6624 168.737 70.9513 168.408 71.3206 168.173C71.6923 167.939 72.1243 167.822 72.6167 167.822C73.1092 167.822 73.54 167.939 73.9094 168.173C74.281 168.408 74.5699 168.737 74.7758 169.16C74.9842 169.584 75.0883 170.08 75.0883 170.648C75.0883 171.212 74.9842 171.704 74.7758 172.126C74.5699 172.547 74.281 172.875 73.9094 173.109C73.54 173.344 73.1092 173.461 72.6167 173.461ZM72.6167 172.708C72.9908 172.708 73.2986 172.612 73.54 172.42C73.7815 172.229 73.9603 171.976 74.0763 171.664C74.1923 171.351 74.2503 171.013 74.2503 170.648C74.2503 170.284 74.1923 169.944 74.0763 169.629C73.9603 169.314 73.7815 169.06 73.54 168.866C73.2986 168.672 72.9908 168.574 72.6167 168.574C72.2427 168.574 71.9349 168.672 71.6934 168.866C71.452 169.06 71.2732 169.314 71.1572 169.629C71.0412 169.944 70.9832 170.284 70.9832 170.648C70.9832 171.013 71.0412 171.351 71.1572 171.664C71.2732 171.976 71.452 172.229 71.6934 172.42C71.9349 172.612 72.2427 172.708 72.6167 172.708ZM76.3676 173.347V167.893H77.1773V168.716H77.2341C77.3335 168.447 77.5135 168.228 77.7739 168.06C78.0343 167.891 78.3279 167.807 78.6546 167.807C78.7161 167.807 78.7931 167.809 78.8854 167.811C78.9777 167.813 79.0476 167.817 79.0949 167.822V168.674C79.0665 168.667 79.0014 168.656 78.8996 168.642C78.8002 168.625 78.6948 168.617 78.5835 168.617C78.3184 168.617 78.0816 168.673 77.8733 168.784C77.6673 168.893 77.504 169.044 77.3833 169.239C77.2649 169.43 77.2057 169.649 77.2057 169.895V173.347H76.3676ZM82.8023 167.893V168.603H79.9756V167.893H82.8023ZM80.7994 166.586H81.6375V171.785C81.6375 172.021 81.6718 172.199 81.7405 172.317C81.8115 172.433 81.9015 172.511 82.0104 172.552C82.1217 172.59 82.2388 172.609 82.3619 172.609C82.4543 172.609 82.53 172.604 82.5892 172.594C82.6484 172.582 82.6958 172.573 82.7313 172.566L82.9017 173.319C82.8449 173.34 82.7656 173.361 82.6638 173.383C82.562 173.406 82.433 173.418 82.2767 173.418C82.04 173.418 81.808 173.367 81.5807 173.265C81.3558 173.164 81.1688 173.009 81.0196 172.8C80.8728 172.592 80.7994 172.329 80.7994 172.012V166.586ZM86.2913 173.461C85.7657 173.461 85.3124 173.345 84.9312 173.113C84.5524 172.878 84.26 172.552 84.0541 172.133C83.8505 171.711 83.7487 171.221 83.7487 170.663C83.7487 170.104 83.8505 169.611 84.0541 169.185C84.26 168.757 84.5465 168.423 84.9134 168.184C85.2828 167.942 85.7136 167.822 86.2061 167.822C86.4901 167.822 86.7707 167.869 87.0477 167.964C87.3247 168.058 87.5768 168.212 87.8041 168.425C88.0313 168.636 88.2124 168.915 88.3474 169.263C88.4823 169.611 88.5498 170.04 88.5498 170.549V170.904H84.3453V170.18H87.6975C87.6975 169.872 87.636 169.597 87.5129 169.356C87.3921 169.114 87.2193 168.924 86.9944 168.784C86.7719 168.644 86.5091 168.574 86.2061 168.574C85.8722 168.574 85.5834 168.657 85.3396 168.823C85.0981 168.986 84.9123 169.199 84.782 169.462C84.6518 169.725 84.5867 170.007 84.5867 170.307V170.79C84.5867 171.202 84.6578 171.551 84.7998 171.838C84.9442 172.122 85.1443 172.339 85.3999 172.488C85.6556 172.635 85.9527 172.708 86.2913 172.708C86.5115 172.708 86.7103 172.677 86.8879 172.616C87.0678 172.552 87.2229 172.457 87.3531 172.332C87.4833 172.204 87.5839 172.045 87.6549 171.856L88.4646 172.083C88.3794 172.358 88.2361 172.599 88.0349 172.807C87.8337 173.013 87.5851 173.174 87.2892 173.29C86.9932 173.404 86.6606 173.461 86.2913 173.461ZM91.8843 173.461C91.4298 173.461 91.0285 173.346 90.6805 173.116C90.3325 172.884 90.0602 172.558 89.8637 172.136C89.6672 171.712 89.569 171.212 89.569 170.634C89.569 170.061 89.6672 169.564 89.8637 169.143C90.0602 168.721 90.3337 168.396 90.684 168.166C91.0344 167.936 91.4392 167.822 91.8985 167.822C92.2536 167.822 92.5342 167.881 92.7401 167.999C92.9485 168.115 93.1071 168.248 93.216 168.397C93.3273 168.544 93.4137 168.664 93.4752 168.759H93.5463V166.074H94.3843V173.347H93.5747V172.509H93.4752C93.4137 172.609 93.3261 172.734 93.2124 172.886C93.0988 173.035 92.9366 173.168 92.7259 173.287C92.5152 173.403 92.2347 173.461 91.8843 173.461ZM91.998 172.708C92.3341 172.708 92.6182 172.62 92.8502 172.445C93.0822 172.268 93.2586 172.023 93.3794 171.71C93.5001 171.395 93.5605 171.032 93.5605 170.62C93.5605 170.213 93.5013 169.856 93.3829 169.551C93.2645 169.243 93.0893 169.004 92.8573 168.834C92.6253 168.661 92.3389 168.574 91.998 168.574C91.6428 168.574 91.3469 168.666 91.1102 168.848C90.8758 169.028 90.6994 169.273 90.5811 169.583C90.4651 169.891 90.407 170.236 90.407 170.62C90.407 171.008 90.4662 171.361 90.5846 171.678C90.7053 171.993 90.8829 172.244 91.1173 172.431C91.354 172.616 91.6476 172.708 91.998 172.708ZM101.277 167.893V168.603H98.3367V167.893H101.277ZM99.2174 173.347V167.14C99.2174 166.827 99.2908 166.567 99.4376 166.359C99.5844 166.15 99.7749 165.994 100.009 165.89C100.244 165.786 100.491 165.734 100.752 165.734C100.957 165.734 101.126 165.75 101.256 165.783C101.386 165.816 101.483 165.847 101.547 165.876L101.305 166.6C101.263 166.586 101.204 166.568 101.128 166.547C101.055 166.525 100.957 166.515 100.837 166.515C100.56 166.515 100.36 166.585 100.237 166.724C100.116 166.864 100.055 167.069 100.055 167.339V173.347H99.2174ZM104.443 173.461C103.95 173.461 103.518 173.344 103.147 173.109C102.777 172.875 102.489 172.547 102.28 172.126C102.074 171.704 101.971 171.212 101.971 170.648C101.971 170.08 102.074 169.584 102.28 169.16C102.489 168.737 102.777 168.408 103.147 168.173C103.518 167.939 103.95 167.822 104.443 167.822C104.935 167.822 105.366 167.939 105.736 168.173C106.107 168.408 106.396 168.737 106.602 169.16C106.81 169.584 106.915 170.08 106.915 170.648C106.915 171.212 106.81 171.704 106.602 172.126C106.396 172.547 106.107 172.875 105.736 173.109C105.366 173.344 104.935 173.461 104.443 173.461ZM104.443 172.708C104.817 172.708 105.125 172.612 105.366 172.42C105.608 172.229 105.786 171.976 105.902 171.664C106.018 171.351 106.076 171.013 106.076 170.648C106.076 170.284 106.018 169.944 105.902 169.629C105.786 169.314 105.608 169.06 105.366 168.866C105.125 168.672 104.817 168.574 104.443 168.574C104.069 168.574 103.761 168.672 103.52 168.866C103.278 169.06 103.099 169.314 102.983 169.629C102.867 169.944 102.809 170.284 102.809 170.648C102.809 171.013 102.867 171.351 102.983 171.664C103.099 171.976 103.278 172.229 103.52 172.42C103.761 172.612 104.069 172.708 104.443 172.708ZM108.194 173.347V167.893H109.003V168.716H109.06C109.16 168.447 109.34 168.228 109.6 168.06C109.86 167.891 110.154 167.807 110.481 167.807C110.542 167.807 110.619 167.809 110.712 167.811C110.804 167.813 110.874 167.817 110.921 167.822V168.674C110.893 168.667 110.828 168.656 110.726 168.642C110.626 168.625 110.521 168.617 110.41 168.617C110.145 168.617 109.908 168.673 109.699 168.784C109.494 168.893 109.33 169.044 109.209 169.239C109.091 169.43 109.032 169.649 109.032 169.895V173.347H108.194ZM111.915 173.347V167.893H112.724V168.745H112.795C112.909 168.454 113.092 168.228 113.346 168.067C113.599 167.903 113.903 167.822 114.258 167.822C114.618 167.822 114.918 167.903 115.157 168.067C115.398 168.228 115.586 168.454 115.721 168.745H115.778C115.918 168.463 116.127 168.239 116.407 168.074C116.686 167.906 117.021 167.822 117.412 167.822C117.899 167.822 118.298 167.974 118.608 168.28C118.919 168.583 119.074 169.055 119.074 169.697V173.347H118.236V169.697C118.236 169.294 118.125 169.006 117.905 168.834C117.685 168.661 117.426 168.574 117.128 168.574C116.744 168.574 116.447 168.69 116.236 168.922C116.026 169.152 115.92 169.443 115.92 169.796V173.347H115.068V169.611C115.068 169.301 114.967 169.051 114.766 168.862C114.565 168.67 114.306 168.574 113.988 168.574C113.771 168.574 113.567 168.632 113.378 168.748C113.191 168.864 113.039 169.025 112.923 169.231C112.809 169.435 112.753 169.671 112.753 169.938V173.347H111.915ZM122.211 173.475C121.865 173.475 121.552 173.41 121.27 173.28C120.988 173.147 120.765 172.957 120.599 172.708C120.433 172.457 120.35 172.154 120.35 171.799C120.35 171.486 120.412 171.233 120.535 171.039C120.658 170.842 120.823 170.689 121.028 170.577C121.234 170.466 121.462 170.383 121.71 170.329C121.961 170.272 122.213 170.227 122.467 170.194C122.798 170.151 123.067 170.119 123.273 170.098C123.481 170.074 123.633 170.035 123.727 169.981C123.824 169.926 123.873 169.832 123.873 169.697V169.668C123.873 169.318 123.777 169.046 123.585 168.851C123.396 168.657 123.108 168.56 122.722 168.56C122.322 168.56 122.009 168.648 121.781 168.823C121.554 168.998 121.394 169.185 121.302 169.384L120.506 169.1C120.649 168.769 120.838 168.511 121.075 168.326C121.314 168.139 121.574 168.009 121.856 167.935C122.14 167.859 122.419 167.822 122.694 167.822C122.869 167.822 123.07 167.843 123.298 167.886C123.527 167.926 123.749 168.01 123.962 168.138C124.177 168.265 124.356 168.458 124.498 168.716C124.64 168.975 124.711 169.32 124.711 169.753V173.347H123.873V172.609H123.83C123.774 172.727 123.679 172.854 123.546 172.989C123.414 173.123 123.237 173.238 123.017 173.333C122.797 173.428 122.528 173.475 122.211 173.475ZM122.339 172.722C122.67 172.722 122.95 172.657 123.177 172.527C123.407 172.397 123.579 172.229 123.695 172.023C123.814 171.817 123.873 171.6 123.873 171.373V170.606C123.837 170.648 123.759 170.687 123.639 170.723C123.52 170.756 123.383 170.786 123.227 170.812C123.073 170.835 122.922 170.857 122.776 170.876C122.631 170.892 122.514 170.906 122.424 170.918C122.206 170.947 122.003 170.993 121.813 171.057C121.626 171.118 121.475 171.212 121.359 171.337C121.245 171.46 121.188 171.628 121.188 171.841C121.188 172.133 121.296 172.353 121.511 172.502C121.729 172.649 122.005 172.722 122.339 172.722ZM128.613 167.893V168.603H125.786V167.893H128.613ZM126.61 166.586H127.448V171.785C127.448 172.021 127.482 172.199 127.551 172.317C127.622 172.433 127.712 172.511 127.821 172.552C127.932 172.59 128.049 172.609 128.172 172.609C128.265 172.609 128.341 172.604 128.4 172.594C128.459 172.582 128.506 172.573 128.542 172.566L128.712 173.319C128.655 173.34 128.576 173.361 128.474 173.383C128.373 173.406 128.244 173.418 128.087 173.418C127.851 173.418 127.619 173.367 127.391 173.265C127.166 173.164 126.979 173.009 126.83 172.8C126.683 172.592 126.61 172.329 126.61 172.012V166.586ZM132.102 173.461C131.576 173.461 131.123 173.345 130.742 173.113C130.363 172.878 130.071 172.552 129.865 172.133C129.661 171.711 129.559 171.221 129.559 170.663C129.559 170.104 129.661 169.611 129.865 169.185C130.071 168.757 130.357 168.423 130.724 168.184C131.093 167.942 131.524 167.822 132.017 167.822C132.301 167.822 132.581 167.869 132.858 167.964C133.135 168.058 133.387 168.212 133.615 168.425C133.842 168.636 134.023 168.915 134.158 169.263C134.293 169.611 134.36 170.04 134.36 170.549V170.904H130.156V170.18H133.508C133.508 169.872 133.447 169.597 133.323 169.356C133.203 169.114 133.03 168.924 132.805 168.784C132.582 168.644 132.32 168.574 132.017 168.574C131.683 168.574 131.394 168.657 131.15 168.823C130.909 168.986 130.723 169.199 130.593 169.462C130.462 169.725 130.397 170.007 130.397 170.307V170.79C130.397 171.202 130.468 171.551 130.61 171.838C130.755 172.122 130.955 172.339 131.21 172.488C131.466 172.635 131.763 172.708 132.102 172.708C132.322 172.708 132.521 172.677 132.698 172.616C132.878 172.552 133.033 172.457 133.164 172.332C133.294 172.204 133.394 172.045 133.465 171.856L134.275 172.083C134.19 172.358 134.047 172.599 133.845 172.807C133.644 173.013 133.396 173.174 133.1 173.29C132.804 173.404 132.471 173.461 132.102 173.461ZM139.499 169.114L138.746 169.327C138.699 169.202 138.629 169.08 138.536 168.962C138.447 168.841 138.323 168.741 138.167 168.663C138.011 168.585 137.811 168.546 137.567 168.546C137.233 168.546 136.955 168.623 136.733 168.777C136.512 168.928 136.402 169.121 136.402 169.356C136.402 169.564 136.478 169.729 136.63 169.849C136.781 169.97 137.018 170.071 137.34 170.151L138.149 170.35C138.637 170.468 139.001 170.649 139.24 170.893C139.479 171.135 139.598 171.446 139.598 171.827C139.598 172.14 139.508 172.419 139.328 172.665C139.151 172.912 138.902 173.106 138.583 173.248C138.263 173.39 137.891 173.461 137.468 173.461C136.911 173.461 136.451 173.34 136.086 173.099C135.722 172.857 135.491 172.504 135.394 172.04L136.189 171.841C136.265 172.135 136.408 172.355 136.619 172.502C136.832 172.649 137.11 172.722 137.453 172.722C137.844 172.722 138.154 172.639 138.384 172.474C138.616 172.306 138.732 172.104 138.732 171.87C138.732 171.681 138.666 171.522 138.533 171.394C138.4 171.264 138.197 171.167 137.922 171.103L137.013 170.89C136.514 170.771 136.147 170.588 135.912 170.339C135.68 170.088 135.564 169.775 135.564 169.398C135.564 169.091 135.651 168.818 135.823 168.582C135.999 168.345 136.237 168.159 136.537 168.024C136.84 167.889 137.184 167.822 137.567 167.822C138.107 167.822 138.531 167.94 138.838 168.177C139.148 168.413 139.369 168.726 139.499 169.114ZM141.471 173.404C141.295 173.404 141.145 173.341 141.02 173.216C140.894 173.09 140.831 172.94 140.831 172.765C140.831 172.59 140.894 172.439 141.02 172.314C141.145 172.188 141.295 172.126 141.471 172.126C141.646 172.126 141.796 172.188 141.922 172.314C142.047 172.439 142.11 172.59 142.11 172.765C142.11 172.881 142.08 172.987 142.021 173.084C141.964 173.181 141.887 173.26 141.79 173.319C141.696 173.376 141.589 173.404 141.471 173.404ZM141.471 169.356C141.295 169.356 141.145 169.293 141.02 169.167C140.894 169.042 140.831 168.892 140.831 168.716C140.831 168.541 140.894 168.391 141.02 168.265C141.145 168.14 141.295 168.077 141.471 168.077C141.646 168.077 141.796 168.14 141.922 168.265C142.047 168.391 142.11 168.541 142.11 168.716C142.11 168.832 142.08 168.939 142.021 169.036C141.964 169.133 141.887 169.211 141.79 169.27C141.696 169.327 141.589 169.356 141.471 169.356ZM149.324 166.074H150.205V171.273C150.205 171.737 150.119 172.131 149.949 172.456C149.778 172.78 149.538 173.026 149.228 173.194C148.918 173.363 148.552 173.447 148.131 173.447C147.733 173.447 147.379 173.374 147.069 173.23C146.759 173.083 146.515 172.875 146.337 172.605C146.16 172.335 146.071 172.014 146.071 171.643H146.938C146.938 171.849 146.988 172.029 147.09 172.182C147.194 172.334 147.336 172.452 147.516 172.538C147.696 172.623 147.901 172.665 148.131 172.665C148.384 172.665 148.6 172.612 148.777 172.506C148.955 172.399 149.09 172.243 149.182 172.037C149.277 171.828 149.324 171.574 149.324 171.273V166.074ZM151.97 173.347V166.074H154.427C154.997 166.074 155.464 166.177 155.826 166.383C156.191 166.587 156.461 166.863 156.636 167.211C156.811 167.559 156.899 167.947 156.899 168.376C156.899 168.804 156.811 169.194 156.636 169.544C156.463 169.894 156.195 170.174 155.833 170.382C155.471 170.588 155.007 170.691 154.441 170.691H152.68V169.91H154.413C154.803 169.91 155.117 169.842 155.354 169.707C155.591 169.572 155.762 169.39 155.869 169.16C155.978 168.928 156.032 168.667 156.032 168.376C156.032 168.084 155.978 167.824 155.869 167.594C155.762 167.365 155.589 167.185 155.35 167.055C155.111 166.922 154.794 166.856 154.399 166.856H152.85V173.347H151.97ZM158.317 173.347V166.074H162.706V166.856H159.198V169.313H162.479V170.094H159.198V172.566H162.763V173.347H158.317ZM169.265 168.347C169.187 168.108 169.084 167.894 168.956 167.704C168.831 167.513 168.681 167.349 168.505 167.214C168.333 167.079 168.136 166.976 167.916 166.905C167.696 166.834 167.454 166.799 167.191 166.799C166.761 166.799 166.369 166.91 166.016 167.133C165.663 167.355 165.383 167.683 165.174 168.116C164.966 168.55 164.862 169.081 164.862 169.711C164.862 170.341 164.967 170.872 165.178 171.305C165.389 171.739 165.674 172.066 166.034 172.289C166.394 172.511 166.799 172.623 167.248 172.623C167.665 172.623 168.032 172.534 168.349 172.356C168.669 172.176 168.917 171.923 169.095 171.596C169.275 171.267 169.365 170.88 169.365 170.435L169.635 170.492H167.447V169.711H170.217V170.492C170.217 171.091 170.089 171.612 169.834 172.055C169.58 172.497 169.23 172.841 168.782 173.084C168.337 173.326 167.826 173.447 167.248 173.447C166.604 173.447 166.039 173.295 165.551 172.992C165.066 172.689 164.687 172.258 164.415 171.699C164.145 171.141 164.01 170.478 164.01 169.711C164.01 169.136 164.087 168.618 164.241 168.159C164.397 167.697 164.617 167.304 164.901 166.98C165.185 166.656 165.521 166.407 165.91 166.234C166.298 166.061 166.725 165.975 167.191 165.975C167.575 165.975 167.932 166.033 168.264 166.149C168.598 166.263 168.895 166.425 169.155 166.636C169.418 166.844 169.637 167.094 169.812 167.385C169.987 167.674 170.108 167.994 170.174 168.347H169.265ZM172.862 172.353L172.805 172.736C172.765 173.006 172.703 173.295 172.62 173.603C172.54 173.911 172.456 174.201 172.368 174.473C172.281 174.745 172.208 174.962 172.152 175.123H171.512C171.543 174.971 171.583 174.771 171.633 174.523C171.683 174.274 171.733 173.996 171.782 173.688C171.834 173.383 171.877 173.07 171.91 172.751L171.953 172.353H172.862ZM177.341 173.347V166.074H179.798C180.369 166.074 180.835 166.177 181.197 166.383C181.562 166.587 181.832 166.863 182.007 167.211C182.182 167.559 182.27 167.947 182.27 168.376C182.27 168.804 182.182 169.194 182.007 169.544C181.834 169.894 181.566 170.174 181.204 170.382C180.842 170.588 180.378 170.691 179.812 170.691H178.051V169.91H179.784C180.174 169.91 180.488 169.842 180.725 169.707C180.962 169.572 181.133 169.39 181.24 169.16C181.349 168.928 181.403 168.667 181.403 168.376C181.403 168.084 181.349 167.824 181.24 167.594C181.133 167.365 180.96 167.185 180.721 167.055C180.482 166.922 180.165 166.856 179.77 166.856H178.221V173.347H177.341ZM189.455 166.074V173.347H188.603L184.64 167.637H184.569V173.347H183.688V166.074H184.541L188.518 171.799H188.589V166.074H189.455ZM196.189 168.347C196.111 168.108 196.008 167.894 195.88 167.704C195.755 167.513 195.604 167.349 195.429 167.214C195.256 167.079 195.06 166.976 194.84 166.905C194.62 166.834 194.378 166.799 194.115 166.799C193.684 166.799 193.293 166.91 192.94 167.133C192.587 167.355 192.307 167.683 192.098 168.116C191.89 168.55 191.786 169.081 191.786 169.711C191.786 170.341 191.891 170.872 192.102 171.305C192.313 171.739 192.598 172.066 192.958 172.289C193.318 172.511 193.722 172.623 194.172 172.623C194.589 172.623 194.956 172.534 195.273 172.356C195.593 172.176 195.841 171.923 196.019 171.596C196.199 171.267 196.289 170.88 196.289 170.435L196.559 170.492H194.371V169.711H197.141V170.492C197.141 171.091 197.013 171.612 196.757 172.055C196.504 172.497 196.154 172.841 195.706 173.084C195.261 173.326 194.75 173.447 194.172 173.447C193.528 173.447 192.962 173.295 192.475 172.992C191.989 172.689 191.611 172.258 191.338 171.699C191.068 171.141 190.934 170.478 190.934 169.711C190.934 169.136 191.01 168.618 191.164 168.159C191.321 167.697 191.541 167.304 191.825 166.98C192.109 166.656 192.445 166.407 192.833 166.234C193.222 166.061 193.649 165.975 194.115 165.975C194.499 165.975 194.856 166.033 195.188 166.149C195.522 166.263 195.819 166.425 196.079 166.636C196.342 166.844 196.561 167.094 196.736 167.385C196.911 167.674 197.032 167.994 197.098 168.347H196.189ZM199.786 172.353L199.729 172.736C199.689 173.006 199.627 173.295 199.544 173.603C199.464 173.911 199.38 174.201 199.292 174.473C199.204 174.745 199.132 174.962 199.075 175.123H198.436C198.467 174.971 198.507 174.771 198.557 174.523C198.607 174.274 198.656 173.996 198.706 173.688C198.758 173.383 198.801 173.07 198.834 172.751L198.877 172.353H199.786ZM209.236 168.347C209.158 168.108 209.055 167.894 208.927 167.704C208.802 167.513 208.651 167.349 208.476 167.214C208.303 167.079 208.107 166.976 207.887 166.905C207.666 166.834 207.425 166.799 207.162 166.799C206.731 166.799 206.34 166.91 205.987 167.133C205.634 167.355 205.353 167.683 205.145 168.116C204.937 168.55 204.833 169.081 204.833 169.711C204.833 170.341 204.938 170.872 205.149 171.305C205.359 171.739 205.645 172.066 206.005 172.289C206.364 172.511 206.769 172.623 207.219 172.623C207.636 172.623 208.003 172.534 208.32 172.356C208.639 172.176 208.888 171.923 209.066 171.596C209.246 171.267 209.335 170.88 209.335 170.435L209.605 170.492H207.418V169.711H210.188V170.492C210.188 171.091 210.06 171.612 209.804 172.055C209.551 172.497 209.201 172.841 208.753 173.084C208.308 173.326 207.797 173.447 207.219 173.447C206.575 173.447 206.009 173.295 205.522 172.992C205.036 172.689 204.657 172.258 204.385 171.699C204.115 171.141 203.98 170.478 203.98 169.711C203.98 169.136 204.057 168.618 204.211 168.159C204.367 167.697 204.588 167.304 204.872 166.98C205.156 166.656 205.492 166.407 205.88 166.234C206.268 166.061 206.696 165.975 207.162 165.975C207.546 165.975 207.903 166.033 208.235 166.149C208.568 166.263 208.866 166.425 209.126 166.636C209.389 166.844 209.608 167.094 209.783 167.385C209.958 167.674 210.079 167.994 210.145 168.347H209.236ZM212.577 166.074V173.347H211.696V166.074H212.577ZM214.343 173.347V166.074H218.703V166.856H215.223V169.313H218.377V170.094H215.223V173.347H214.343ZM220.948 172.353L220.891 172.736C220.851 173.006 220.789 173.295 220.706 173.603C220.626 173.911 220.542 174.201 220.454 174.473C220.367 174.745 220.294 174.962 220.237 175.123H219.598C219.629 174.971 219.669 174.771 219.719 174.523C219.769 174.274 219.818 173.996 219.868 173.688C219.92 173.383 219.963 173.07 219.996 172.751L220.039 172.353H220.948ZM225.427 166.074H226.478L228.949 172.111H229.035L231.506 166.074H232.557V173.347H231.733V167.822H231.662L229.39 173.347H228.594L226.321 167.822H226.25V173.347H225.427V166.074ZM234.323 173.347V166.074H236.78C237.351 166.074 237.817 166.177 238.18 166.383C238.544 166.587 238.814 166.863 238.989 167.211C239.164 167.559 239.252 167.947 239.252 168.376C239.252 168.804 239.164 169.194 238.989 169.544C238.816 169.894 238.549 170.174 238.187 170.382C237.824 170.588 237.36 170.691 236.795 170.691H235.033V169.91H236.766C237.157 169.91 237.471 169.842 237.707 169.707C237.944 169.572 238.116 169.39 238.222 169.16C238.331 168.928 238.386 168.667 238.386 168.376C238.386 168.084 238.331 167.824 238.222 167.594C238.116 167.365 237.943 167.185 237.704 167.055C237.465 166.922 237.147 166.856 236.752 166.856H235.204V173.347H234.323ZM240.372 171.856V171.131L243.568 166.074H244.094V167.197H243.739L241.324 171.018V171.074H245.628V171.856H240.372ZM243.796 173.347V171.636V171.298V166.074H244.634V173.347H243.796ZM247.881 172.353L247.824 172.736C247.784 173.006 247.723 173.295 247.64 173.603C247.559 173.911 247.475 174.201 247.388 174.473C247.3 174.745 247.228 174.962 247.171 175.123H246.532C246.563 174.971 246.603 174.771 246.653 174.523C246.702 174.274 246.752 173.996 246.802 173.688C246.854 173.383 246.896 173.07 246.93 172.751L246.972 172.353H247.881ZM252.36 173.347V166.074H254.818C255.388 166.074 255.854 166.177 256.217 166.383C256.581 166.587 256.851 166.863 257.026 167.211C257.202 167.559 257.289 167.947 257.289 168.376C257.289 168.804 257.202 169.194 257.026 169.544C256.854 169.894 256.586 170.174 256.224 170.382C255.862 170.588 255.398 170.691 254.832 170.691H253.07V169.91H254.803C255.194 169.91 255.508 169.842 255.744 169.707C255.981 169.572 256.153 169.39 256.259 169.16C256.368 168.928 256.423 168.667 256.423 168.376C256.423 168.084 256.368 167.824 256.259 167.594C256.153 167.365 255.98 167.185 255.741 167.055C255.502 166.922 255.185 166.856 254.789 166.856H253.241V173.347H252.36ZM260.952 173.347H258.708V166.074H261.052C261.757 166.074 262.361 166.22 262.863 166.511C263.365 166.8 263.749 167.216 264.017 167.758C264.284 168.297 264.418 168.944 264.418 169.697C264.418 170.454 264.283 171.106 264.013 171.653C263.743 172.198 263.35 172.617 262.834 172.91C262.318 173.202 261.691 173.347 260.952 173.347ZM259.589 172.566H260.895C261.497 172.566 261.995 172.45 262.39 172.218C262.786 171.986 263.08 171.656 263.275 171.227C263.469 170.799 263.566 170.288 263.566 169.697C263.566 169.109 263.47 168.604 263.278 168.18C263.086 167.754 262.8 167.427 262.419 167.2C262.038 166.971 261.563 166.856 260.995 166.856H259.589V172.566ZM265.895 173.347V166.074H270.256V166.856H266.776V169.313H269.929V170.094H266.776V173.347H265.895ZM272.5 172.353L272.444 172.736C272.403 173.006 272.342 173.295 272.259 173.603C272.178 173.911 272.094 174.201 272.007 174.473C271.919 174.745 271.847 174.962 271.79 175.123H271.151C271.182 174.971 271.222 174.771 271.272 174.523C271.321 174.274 271.371 173.996 271.421 173.688C271.473 173.383 271.516 173.07 271.549 172.751L271.591 172.353H272.5ZM276.979 173.347V166.074H279.437C280.007 166.074 280.474 166.177 280.836 166.383C281.2 166.587 281.47 166.863 281.646 167.211C281.821 167.559 281.908 167.947 281.908 168.376C281.908 168.804 281.821 169.194 281.646 169.544C281.473 169.894 281.205 170.174 280.843 170.382C280.481 170.588 280.017 170.691 279.451 170.691H277.69V169.91H279.422C279.813 169.91 280.127 169.842 280.364 169.707C280.6 169.572 280.772 169.39 280.878 169.16C280.987 168.928 281.042 168.667 281.042 168.376C281.042 168.084 280.987 167.824 280.878 167.594C280.772 167.365 280.599 167.185 280.36 167.055C280.121 166.922 279.804 166.856 279.408 166.856H277.86V173.347H276.979ZM287.304 167.893C287.262 167.533 287.089 167.253 286.786 167.055C286.483 166.856 286.111 166.756 285.671 166.756C285.349 166.756 285.067 166.808 284.826 166.913C284.586 167.017 284.399 167.16 284.264 167.342C284.132 167.524 284.066 167.732 284.066 167.964C284.066 168.158 284.112 168.325 284.204 168.464C284.299 168.602 284.42 168.716 284.566 168.809C284.713 168.899 284.867 168.973 285.028 169.033C285.189 169.089 285.337 169.136 285.472 169.171L286.21 169.37C286.4 169.42 286.611 169.488 286.843 169.576C287.077 169.663 287.301 169.783 287.514 169.935C287.729 170.084 287.907 170.275 288.046 170.51C288.186 170.744 288.256 171.032 288.256 171.373C288.256 171.766 288.153 172.121 287.947 172.438C287.743 172.755 287.445 173.007 287.052 173.194C286.661 173.381 286.187 173.475 285.628 173.475C285.107 173.475 284.656 173.391 284.275 173.223C283.896 173.055 283.598 172.82 283.38 172.52C283.165 172.219 283.043 171.87 283.014 171.472H283.924C283.947 171.747 284.04 171.974 284.201 172.154C284.364 172.332 284.57 172.464 284.818 172.552C285.069 172.637 285.339 172.68 285.628 172.68C285.964 172.68 286.266 172.625 286.534 172.516C286.801 172.405 287.013 172.251 287.169 172.055C287.326 171.856 287.404 171.624 287.404 171.359C287.404 171.117 287.336 170.921 287.201 170.769C287.066 170.618 286.889 170.494 286.669 170.4C286.448 170.305 286.21 170.222 285.955 170.151L285.06 169.895C284.492 169.732 284.042 169.499 283.71 169.196C283.379 168.893 283.213 168.496 283.213 168.006C283.213 167.599 283.323 167.244 283.544 166.941C283.766 166.636 284.064 166.399 284.438 166.231C284.815 166.06 285.235 165.975 285.699 165.975C286.168 165.975 286.585 166.059 286.949 166.227C287.314 166.393 287.603 166.62 287.816 166.909C288.031 167.198 288.145 167.526 288.157 167.893H287.304ZM291.948 173.347H289.704V166.074H292.048C292.753 166.074 293.357 166.22 293.859 166.511C294.361 166.8 294.745 167.216 295.013 167.758C295.28 168.297 295.414 168.944 295.414 169.697C295.414 170.454 295.279 171.106 295.009 171.653C294.739 172.198 294.346 172.617 293.83 172.91C293.314 173.202 292.687 173.347 291.948 173.347ZM290.585 172.566H291.891C292.493 172.566 292.991 172.45 293.386 172.218C293.782 171.986 294.077 171.656 294.271 171.227C294.465 170.799 294.562 170.288 294.562 169.697C294.562 169.109 294.466 168.604 294.274 168.18C294.082 167.754 293.796 167.427 293.415 167.2C293.034 166.971 292.559 166.856 291.991 166.856H290.585V172.566ZM297.569 172.353L297.512 172.736C297.472 173.006 297.41 173.295 297.327 173.603C297.247 173.911 297.163 174.201 297.075 174.473C296.988 174.745 296.915 174.962 296.859 175.123H296.219C296.25 174.971 296.29 174.771 296.34 174.523C296.39 174.274 296.44 173.996 296.489 173.688C296.541 173.383 296.584 173.07 296.617 172.751L296.66 172.353H297.569ZM302.346 173.347H301.423L304.093 166.074H305.002L307.673 173.347H306.749L304.576 167.225H304.519L302.346 173.347ZM302.687 170.506H306.408V171.288H302.687V170.506ZM309.686 166.074V173.347H308.805V166.074H309.686ZM312.588 172.353L312.532 172.736C312.491 173.006 312.43 173.295 312.347 173.603C312.266 173.911 312.182 174.201 312.095 174.473C312.007 174.745 311.935 174.962 311.878 175.123H311.239C311.27 174.971 311.31 174.771 311.36 174.523C311.409 174.274 311.459 173.996 311.509 173.688C311.561 173.383 311.603 173.07 311.637 172.751L311.679 172.353H312.588ZM318.388 173.347L316.4 166.074H317.294L318.814 171.998H318.885L320.434 166.074H321.428L322.976 171.998H323.047L324.567 166.074H325.462L323.473 173.347H322.564L320.959 167.552H320.902L319.297 173.347H318.388ZM328.154 173.461C327.661 173.461 327.229 173.344 326.858 173.109C326.488 172.875 326.2 172.547 325.991 172.126C325.785 171.704 325.682 171.212 325.682 170.648C325.682 170.08 325.785 169.584 325.991 169.16C326.2 168.737 326.488 168.408 326.858 168.173C327.229 167.939 327.661 167.822 328.154 167.822C328.646 167.822 329.077 167.939 329.446 168.173C329.818 168.408 330.107 168.737 330.313 169.16C330.521 169.584 330.625 170.08 330.625 170.648C330.625 171.212 330.521 171.704 330.313 172.126C330.107 172.547 329.818 172.875 329.446 173.109C329.077 173.344 328.646 173.461 328.154 173.461ZM328.154 172.708C328.528 172.708 328.836 172.612 329.077 172.42C329.319 172.229 329.497 171.976 329.613 171.664C329.729 171.351 329.787 171.013 329.787 170.648C329.787 170.284 329.729 169.944 329.613 169.629C329.497 169.314 329.319 169.06 329.077 168.866C328.836 168.672 328.528 168.574 328.154 168.574C327.78 168.574 327.472 168.672 327.231 168.866C326.989 169.06 326.81 169.314 326.694 169.629C326.578 169.944 326.52 170.284 326.52 170.648C326.52 171.013 326.578 171.351 326.694 171.664C326.81 171.976 326.989 172.229 327.231 172.42C327.472 172.612 327.78 172.708 328.154 172.708ZM331.905 173.347V167.893H332.714V168.716H332.771C332.871 168.447 333.051 168.228 333.311 168.06C333.571 167.891 333.865 167.807 334.192 167.807C334.253 167.807 334.33 167.809 334.422 167.811C334.515 167.813 334.585 167.817 334.632 167.822V168.674C334.604 168.667 334.539 168.656 334.437 168.642C334.337 168.625 334.232 168.617 334.121 168.617C333.855 168.617 333.619 168.673 333.41 168.784C333.204 168.893 333.041 169.044 332.92 169.239C332.802 169.43 332.743 169.649 332.743 169.895V173.347H331.905ZM337.519 173.461C337.065 173.461 336.663 173.346 336.315 173.116C335.967 172.884 335.695 172.558 335.498 172.136C335.302 171.712 335.204 171.212 335.204 170.634C335.204 170.061 335.302 169.564 335.498 169.143C335.695 168.721 335.968 168.396 336.319 168.166C336.669 167.936 337.074 167.822 337.533 167.822C337.888 167.822 338.169 167.881 338.375 167.999C338.583 168.115 338.742 168.248 338.851 168.397C338.962 168.544 339.048 168.664 339.11 168.759H339.181V166.074H340.019V173.347H339.209V172.509H339.11C339.048 172.609 338.961 172.734 338.847 172.886C338.734 173.035 338.571 173.168 338.361 173.287C338.15 173.403 337.869 173.461 337.519 173.461ZM337.633 172.708C337.969 172.708 338.253 172.62 338.485 172.445C338.717 172.268 338.893 172.023 339.014 171.71C339.135 171.395 339.195 171.032 339.195 170.62C339.195 170.213 339.136 169.856 339.018 169.551C338.899 169.243 338.724 169.004 338.492 168.834C338.26 168.661 337.974 168.574 337.633 168.574C337.278 168.574 336.982 168.666 336.745 168.848C336.511 169.028 336.334 169.273 336.216 169.583C336.1 169.891 336.042 170.236 336.042 170.62C336.042 171.008 336.101 171.361 336.219 171.678C336.34 171.993 336.518 172.244 336.752 172.431C336.989 172.616 337.282 172.708 337.633 172.708ZM342.92 172.353L342.864 172.736C342.823 173.006 342.762 173.295 342.679 173.603C342.598 173.911 342.514 174.201 342.427 174.473C342.339 174.745 342.267 174.962 342.21 175.123H341.571C341.602 174.971 341.642 174.771 341.692 174.523C341.741 174.274 341.791 173.996 341.841 173.688C341.893 173.383 341.936 173.07 341.969 172.751L342.011 172.353H342.92ZM347.399 173.347V166.074H349.857C350.427 166.074 350.894 166.177 351.256 166.383C351.62 166.587 351.89 166.863 352.065 167.211C352.241 167.559 352.328 167.947 352.328 168.376C352.328 168.804 352.241 169.194 352.065 169.544C351.893 169.894 351.625 170.174 351.263 170.382C350.901 170.588 350.437 170.691 349.871 170.691H348.109V169.91H349.842C350.233 169.91 350.547 169.842 350.783 169.707C351.02 169.572 351.192 169.39 351.298 169.16C351.407 168.928 351.462 168.667 351.462 168.376C351.462 168.084 351.407 167.824 351.298 167.594C351.192 167.365 351.019 167.185 350.78 167.055C350.541 166.922 350.224 166.856 349.828 166.856H348.28V173.347H347.399ZM353.747 173.347V166.074H356.204C356.775 166.074 357.241 166.177 357.603 166.383C357.968 166.587 358.238 166.863 358.413 167.211C358.588 167.559 358.676 167.947 358.676 168.376C358.676 168.804 358.588 169.194 358.413 169.544C358.24 169.894 357.973 170.174 357.611 170.382C357.248 170.588 356.784 170.691 356.218 170.691H354.457V169.91H356.19C356.581 169.91 356.894 169.842 357.131 169.707C357.368 169.572 357.54 169.39 357.646 169.16C357.755 168.928 357.809 168.667 357.809 168.376C357.809 168.084 357.755 167.824 357.646 167.594C357.54 167.365 357.367 167.185 357.128 167.055C356.888 166.922 356.571 166.856 356.176 166.856H354.628V173.347H353.747ZM359.697 166.856V166.074H365.151V166.856H362.864V173.347H361.984V166.856H359.697Z" fill="#676767"/>
<path d="M206.406 59.2223L206.497 59.2468L206.502 59.2424C206.902 59.304 207.313 59.0916 207.439 58.7099C208.511 55.479 211.898 53.2062 215.688 53.2062C216.132 53.2062 216.523 52.8792 216.523 52.4401C216.523 52.001 216.132 51.674 215.688 51.674C211.032 51.674 207.105 54.4548 205.841 58.2636C205.7 58.686 205.975 59.1069 206.406 59.2223Z" fill="#EAEAEA" stroke="#F9FFF9" stroke-width="0.322847"/>
<path d="M225.126 82.0687H221.081C220.709 82.0687 220.407 81.7979 220.407 81.464C220.407 81.1302 220.709 80.8594 221.081 80.8594H225.126C230.702 80.8594 235.239 76.7904 235.239 71.7895C235.239 66.7885 230.702 62.7196 225.126 62.7196H225.029C224.833 62.7196 224.647 62.6435 224.519 62.511C224.391 62.3784 224.333 62.2026 224.361 62.0289C224.422 61.6523 224.452 61.274 224.452 60.9056C224.452 56.5715 220.52 53.045 215.688 53.045C213.808 53.045 212.015 53.5719 210.503 54.5691C210.17 54.7881 209.698 54.6909 209.506 54.3631C205.224 47.0493 194.038 46.0672 188.239 52.4295C185.797 55.1099 184.837 58.5966 185.606 61.9949C185.691 62.3702 185.37 62.72 184.945 62.72H184.675C179.099 62.72 174.562 66.789 174.562 71.7899C174.562 76.7909 179.099 80.8598 184.675 80.8598H188.72C189.092 80.8598 189.394 81.1306 189.394 81.4645C189.394 81.7983 189.092 82.0692 188.72 82.0692H184.675C178.355 82.0692 173.214 77.4578 173.214 71.7899C173.214 66.281 178.071 61.7702 184.146 61.5214C183.575 57.9958 184.666 54.4395 187.195 51.6642C193.404 44.8518 205.303 45.6154 210.332 53.2117C211.937 52.3094 213.773 51.8361 215.687 51.8361C221.542 51.8361 226.181 56.3054 225.775 61.5271C231.794 61.8298 236.587 66.3168 236.587 71.7894C236.587 77.4578 231.445 82.0687 225.126 82.0687L225.126 82.0687Z" fill="#EAEAEA"/>
<path d="M187.794 81.1225C187.794 89.5632 195.444 96.4007 204.81 96.4007C214.176 96.4007 221.826 89.5631 221.826 81.1225C221.826 72.6819 214.176 65.8444 204.81 65.8444C195.444 65.8444 187.794 72.682 187.794 81.1225ZM189.465 81.1225C189.465 73.5595 196.332 67.3769 204.81 67.3769C213.287 67.3769 220.154 73.5594 220.154 81.1225C220.154 88.6856 213.287 94.8682 204.81 94.8682C196.332 94.8682 189.465 88.6857 189.465 81.1225Z" fill="#EAEAEA" stroke="#F9FFF9" stroke-width="0.322847"/>
<path d="M204.463 87.2078C204.463 87.5575 204.773 87.8119 205.118 87.8119C205.462 87.8119 205.773 87.5579 205.773 87.2078V75.6981C205.773 75.3484 205.462 75.0939 205.118 75.0939C204.773 75.0939 204.463 75.3484 204.463 75.6981V87.2078Z" fill="#EAEAEA" stroke="#B2CFF1" stroke-width="0.322847"/>
<path d="M208.61 79.6737C208.738 79.7891 208.905 79.8446 209.067 79.8446L201.626 79.6736L205.118 76.542L208.61 79.6737ZM200.713 79.6737C200.967 79.9016 201.372 79.9018 201.626 79.6737L204.661 75.2659C204.661 75.266 204.661 75.266 204.661 75.266L200.713 78.8073C200.448 79.0444 200.448 79.4366 200.713 79.6737ZM209.067 79.8446C209.228 79.8446 209.395 79.7896 209.524 79.6735L209.067 79.8446Z" fill="#EAEAEA" stroke="#B2CFF1" stroke-width="0.322847"/>
</svg>
