<svg width="184" height="24" viewBox="0 0 184 24" fill="none" xmlns="http://www.w3.org/2000/svg">
<path d="M21.5 12C21.5 17.2467 17.2467 21.5 12 21.5C6.75329 21.5 2.5 17.2467 2.5 12C2.5 6.75329 6.75329 2.5 12 2.5C17.2467 2.5 21.5 6.75329 21.5 12Z" stroke="white" stroke-linejoin="round"/>
<path d="M101.5 12C101.5 17.2467 97.2467 21.5 92 21.5C86.7533 21.5 82.5 17.2467 82.5 12C82.5 6.75329 86.7533 2.5 92 2.5C97.2467 2.5 101.5 6.75329 101.5 12Z" stroke="white" stroke-linejoin="round"/>
<path d="M141.5 12C141.5 17.2467 137.247 21.5 132 21.5C126.753 21.5 122.5 17.2467 122.5 12C122.5 6.75329 126.753 2.5 132 2.5C137.247 2.5 141.5 6.75329 141.5 12Z" stroke="white" stroke-linejoin="round"/>
<path d="M181.5 12C181.5 17.2467 177.247 21.5 172 21.5C166.753 21.5 162.5 17.2467 162.5 12C162.5 6.75329 166.753 2.5 172 2.5C177.247 2.5 181.5 6.75329 181.5 12Z" stroke="white" stroke-linejoin="round"/>
<path d="M52 2C46.4772 2 42 6.47715 42 12C42 17.5228 46.4772 22 52 22C57.5228 22 62 17.5228 62 12C62 6.47715 57.5228 2 52 2Z" fill="white"/>
</svg>
